<?xml version="1.0" encoding="UTF-8" standalone="no"?>
<!DOCTYPE svg PUBLIC "-//W3C//DTD SVG 1.1//EN"
 "http://www.w3.org/Graphics/SVG/1.1/DTD/svg11.dtd">
<!-- Generated by graphviz version 2.47.0 (20210316.0004)
 -->
<!-- Title: dependencies Pages: 1 -->
<svg width="1303pt" height="284pt"
 viewBox="0.00 0.00 1303.00 284.00" xmlns="http://www.w3.org/2000/svg" xmlns:xlink="http://www.w3.org/1999/xlink">
<g id="graph0" class="graph" transform="scale(1 1) rotate(0) translate(4 280)">
<title>dependencies</title>
<polygon fill="white" stroke="transparent" points="-4,4 -4,-280 1299,-280 1299,4 -4,4"/>
<text text-anchor="start" x="626.51" y="-42.4" font-family="Times-12" font-weight="bold" font-size="14.00">Legend</text>
<polygon fill="#ffffb3" stroke="transparent" points="413.5,-10 413.5,-30 433.5,-30 433.5,-10 413.5,-10"/>
<text text-anchor="start" x="437.13" y="-15.4" font-family="Times-12" font-size="14.00"> &#160;Declarations</text>
<polygon fill="#8dd3c7" stroke="transparent" points="526.5,-10 526.5,-30 546.5,-30 546.5,-10 526.5,-10"/>
<text text-anchor="start" x="550.23" y="-15.4" font-family="Times-12" font-size="14.00"> &#160;Module</text>
<polygon fill="#80b1d3" stroke="transparent" points="612.5,-10 612.5,-30 632.5,-30 632.5,-10 612.5,-10"/>
<text text-anchor="start" x="636.28" y="-15.4" font-family="Times-12" font-size="14.00"> &#160;Bootstrap</text>
<polygon fill="#fdb462" stroke="transparent" points="709.5,-10 709.5,-30 729.5,-30 729.5,-10 709.5,-10"/>
<text text-anchor="start" x="733.17" y="-15.4" font-family="Times-12" font-size="14.00"> &#160;Providers</text>
<polygon fill="#fb8072" stroke="transparent" points="805.5,-10 805.5,-30 825.5,-30 825.5,-10 805.5,-10"/>
<text text-anchor="start" x="829.23" y="-15.4" font-family="Times-12" font-size="14.00"> &#160;Exports</text>
<g id="clust1" class="cluster">
<title>cluster_AppModule</title>
<polygon fill="none" stroke="black" stroke-dasharray="1,5" points="8,-70 8,-268 1287,-268 1287,-70 8,-70"/>
</g>
<g id="clust2" class="cluster">
<title>cluster_AppModule_declarations</title>
<polygon fill="none" stroke="black" points="518,-78 518,-130 1279,-130 1279,-78 518,-78"/>
</g>
<g id="clust10" class="cluster">
<title>cluster_AppModule_bootstrap</title>
<polygon fill="none" stroke="black" points="617,-208 617,-260 741,-260 741,-208 617,-208"/>
</g>
<g id="clust11" class="cluster">
<title>cluster_AppModule_providers</title>
<polygon fill="none" stroke="black" points="168,-78 168,-130 510,-130 510,-78 168,-78"/>
</g>
<g id="clust8" class="cluster">
<title>cluster_AppModule_imports</title>
<polygon fill="none" stroke="black" points="16,-78 16,-130 160,-130 160,-78 16,-78"/>
</g>
<!-- AppComponent -->
<g id="node1" class="node">
<title>AppComponent</title>
<polygon fill="#ffffb3" stroke="black" points="1270.94,-122 1165.06,-122 1165.06,-86 1270.94,-86 1270.94,-122"/>
<text text-anchor="middle" x="1218" y="-99.8" font-family="Times,serif" font-size="14.00">AppComponent</text>
</g>
<!-- AppModule -->
<g id="node6" class="node">
<title>AppModule</title>
<polygon fill="#8dd3c7" stroke="black" points="720.66,-187 717.66,-191 696.66,-191 693.66,-187 637.34,-187 637.34,-151 720.66,-151 720.66,-187"/>
<text text-anchor="middle" x="679" y="-164.8" font-family="Times,serif" font-size="14.00">AppModule</text>
</g>
<!-- AppComponent&#45;&gt;AppModule -->
<g id="edge1" class="edge">
<title>AppComponent&#45;&gt;AppModule</title>
<path fill="none" stroke="black" d="M1218,-122.29C1218,-144.21 1218,-178 1218,-178 1218,-178 730.85,-178 730.85,-178"/>
<polygon fill="black" stroke="black" points="730.85,-174.5 720.85,-178 730.85,-181.5 730.85,-174.5"/>
</g>
<!-- HomeComponent -->
<g id="node2" class="node">
<title>HomeComponent</title>
<polygon fill="#ffffb3" stroke="black" points="1147.55,-122 1032.45,-122 1032.45,-86 1147.55,-86 1147.55,-122"/>
<text text-anchor="middle" x="1090" y="-99.8" font-family="Times,serif" font-size="14.00">HomeComponent</text>
</g>
<!-- HomeComponent&#45;&gt;AppModule -->
<g id="edge2" class="edge">
<title>HomeComponent&#45;&gt;AppModule</title>
<path fill="none" stroke="black" d="M1090,-122.11C1090,-141.34 1090,-169 1090,-169 1090,-169 730.67,-169 730.67,-169"/>
<polygon fill="black" stroke="black" points="730.67,-165.5 720.67,-169 730.67,-172.5 730.67,-165.5"/>
</g>
<!-- RepositoryCardComponent -->
<g id="node3" class="node">
<title>RepositoryCardComponent</title>
<polygon fill="#ffffb3" stroke="black" points="1013.98,-122 844.02,-122 844.02,-86 1013.98,-86 1013.98,-122"/>
<text text-anchor="middle" x="929" y="-99.8" font-family="Times,serif" font-size="14.00">RepositoryCardComponent</text>
</g>
<!-- RepositoryCardComponent&#45;&gt;AppModule -->
<g id="edge3" class="edge">
<title>RepositoryCardComponent&#45;&gt;AppModule</title>
<path fill="none" stroke="black" d="M929,-122.03C929,-138.4 929,-160 929,-160 929,-160 730.84,-160 730.84,-160"/>
<polygon fill="black" stroke="black" points="730.84,-156.5 720.84,-160 730.84,-163.5 730.84,-156.5"/>
</g>
<!-- UserCardComponent -->
<g id="node4" class="node">
<title>UserCardComponent</title>
<polygon fill="#ffffb3" stroke="black" points="826.47,-122 691.53,-122 691.53,-86 826.47,-86 826.47,-122"/>
<text text-anchor="middle" x="759" y="-99.8" font-family="Times,serif" font-size="14.00">UserCardComponent</text>
</g>
<!-- UserCardComponent&#45;&gt;AppModule -->
<g id="edge4" class="edge">
<title>UserCardComponent&#45;&gt;AppModule</title>
<path fill="none" stroke="black" d="M706.17,-122.11C706.17,-122.11 706.17,-140.99 706.17,-140.99"/>
<polygon fill="black" stroke="black" points="702.67,-140.99 706.17,-150.99 709.67,-140.99 702.67,-140.99"/>
</g>
<!-- UserDetailsComponent -->
<g id="node5" class="node">
<title>UserDetailsComponent</title>
<polygon fill="#ffffb3" stroke="black" points="673.91,-122 526.09,-122 526.09,-86 673.91,-86 673.91,-122"/>
<text text-anchor="middle" x="600" y="-99.8" font-family="Times,serif" font-size="14.00">UserDetailsComponent</text>
</g>
<!-- UserDetailsComponent&#45;&gt;AppModule -->
<g id="edge5" class="edge">
<title>UserDetailsComponent&#45;&gt;AppModule</title>
<path fill="none" stroke="black" d="M655.44,-122.11C655.44,-122.11 655.44,-140.99 655.44,-140.99"/>
<polygon fill="black" stroke="black" points="651.94,-140.99 655.44,-150.99 658.94,-140.99 651.94,-140.99"/>
</g>
<!-- AppComponent  -->
<g id="node8" class="node">
<title>AppComponent </title>
<polygon fill="#80b1d3" stroke="black" points="733.44,-252 624.56,-252 624.56,-216 733.44,-216 733.44,-252"/>
<text text-anchor="middle" x="679" y="-229.8" font-family="Times,serif" font-size="14.00">AppComponent </text>
</g>
<!-- AppModule&#45;&gt;AppComponent  -->
<g id="edge7" class="edge">
<title>AppModule&#45;&gt;AppComponent </title>
<path fill="none" stroke="black" stroke-dasharray="1,5" d="M679,-187.11C679,-187.11 679,-205.99 679,-205.99"/>
<polygon fill="black" stroke="black" points="675.5,-205.99 679,-215.99 682.5,-205.99 675.5,-205.99"/>
</g>
<!-- AppRoutingModule -->
<g id="node7" class="node">
<title>AppRoutingModule</title>
<polygon fill="#8dd3c7" stroke="black" points="152.27,-122 149.27,-126 128.27,-126 125.27,-122 23.73,-122 23.73,-86 152.27,-86 152.27,-122"/>
<text text-anchor="middle" x="88" y="-99.8" font-family="Times,serif" font-size="14.00">AppRoutingModule</text>
</g>
<!-- AppRoutingModule&#45;&gt;AppModule -->
<g id="edge6" class="edge">
<title>AppRoutingModule&#45;&gt;AppModule</title>
<path fill="none" stroke="black" d="M88,-122.29C88,-144.21 88,-178 88,-178 88,-178 626.97,-178 626.97,-178"/>
<polygon fill="black" stroke="black" points="626.97,-181.5 636.97,-178 626.97,-174.5 626.97,-181.5"/>
</g>
<!-- ErrorInterceptor -->
<g id="node9" class="node">
<title>ErrorInterceptor</title>
<ellipse fill="#fdb462" stroke="black" cx="428" cy="-104" rx="73.53" ry="18"/>
<text text-anchor="middle" x="428" y="-99.8" font-family="Times,serif" font-size="14.00">ErrorInterceptor</text>
</g>
<!-- ErrorInterceptor&#45;&gt;AppModule -->
<g id="edge8" class="edge">
<title>ErrorInterceptor&#45;&gt;AppModule</title>
<path fill="none" stroke="black" d="M428,-122.03C428,-138.4 428,-160 428,-160 428,-160 627.27,-160 627.27,-160"/>
<polygon fill="black" stroke="black" points="627.27,-163.5 637.27,-160 627.27,-156.5 627.27,-163.5"/>
</g>
<!-- GithubInterceptor -->
<g id="node10" class="node">
<title>GithubInterceptor</title>
<ellipse fill="#fdb462" stroke="black" cx="256" cy="-104" rx="80.44" ry="18"/>
<text text-anchor="middle" x="256" y="-99.8" font-family="Times,serif" font-size="14.00">GithubInterceptor</text>
</g>
<!-- GithubInterceptor&#45;&gt;AppModule -->
<g id="edge9" class="edge">
<title>GithubInterceptor&#45;&gt;AppModule</title>
<path fill="none" stroke="black" d="M256,-122.11C256,-141.34 256,-169 256,-169 256,-169 627.28,-169 627.28,-169"/>
<polygon fill="black" stroke="black" points="627.28,-172.5 637.28,-169 627.28,-165.5 627.28,-172.5"/>
</g>
</g>
</svg>
