<?xml version="1.0" encoding="UTF-8" standalone="no"?>
<!DOCTYPE svg PUBLIC "-//W3C//DTD SVG 1.1//EN"
 "http://www.w3.org/Graphics/SVG/1.1/DTD/svg11.dtd">
<!-- Generated by graphviz version 2.47.0 (20210316.0004)
 -->
<!-- Title: dependencies Pages: 1 -->
<svg width="1125pt" height="284pt"
 viewBox="0.00 0.00 1125.00 284.00" xmlns="http://www.w3.org/2000/svg" xmlns:xlink="http://www.w3.org/1999/xlink">
<g id="graph0" class="graph" transform="scale(1 1) rotate(0) translate(4 280)">
<title>dependencies</title>
<polygon fill="white" stroke="transparent" points="-4,4 -4,-280 1121,-280 1121,4 -4,4"/>
<text text-anchor="start" x="537.51" y="-42.4" font-family="Times-12" font-weight="bold" font-size="14.00">Legend</text>
<polygon fill="#ffffb3" stroke="transparent" points="324.5,-10 324.5,-30 344.5,-30 344.5,-10 324.5,-10"/>
<text text-anchor="start" x="348.13" y="-15.4" font-family="Times-12" font-size="14.00"> &#160;Declarations</text>
<polygon fill="#8dd3c7" stroke="transparent" points="437.5,-10 437.5,-30 457.5,-30 457.5,-10 437.5,-10"/>
<text text-anchor="start" x="461.23" y="-15.4" font-family="Times-12" font-size="14.00"> &#160;Module</text>
<polygon fill="#80b1d3" stroke="transparent" points="523.5,-10 523.5,-30 543.5,-30 543.5,-10 523.5,-10"/>
<text text-anchor="start" x="547.28" y="-15.4" font-family="Times-12" font-size="14.00"> &#160;Bootstrap</text>
<polygon fill="#fdb462" stroke="transparent" points="620.5,-10 620.5,-30 640.5,-30 640.5,-10 620.5,-10"/>
<text text-anchor="start" x="644.17" y="-15.4" font-family="Times-12" font-size="14.00"> &#160;Providers</text>
<polygon fill="#fb8072" stroke="transparent" points="716.5,-10 716.5,-30 736.5,-30 736.5,-10 716.5,-10"/>
<text text-anchor="start" x="740.23" y="-15.4" font-family="Times-12" font-size="14.00"> &#160;Exports</text>
<g id="clust1" class="cluster">
<title>cluster_AppModule</title>
<polygon fill="none" stroke="black" stroke-dasharray="1,5" points="8,-70 8,-268 1109,-268 1109,-70 8,-70"/>
</g>
<g id="clust2" class="cluster">
<title>cluster_AppModule_declarations</title>
<polygon fill="none" stroke="black" points="340,-78 340,-130 1101,-130 1101,-78 340,-78"/>
</g>
<g id="clust8" class="cluster">
<title>cluster_AppModule_imports</title>
<polygon fill="none" stroke="black" points="188,-78 188,-130 332,-130 332,-78 188,-78"/>
</g>
<g id="clust10" class="cluster">
<title>cluster_AppModule_bootstrap</title>
<polygon fill="none" stroke="black" points="519,-208 519,-260 643,-260 643,-208 519,-208"/>
</g>
<g id="clust11" class="cluster">
<title>cluster_AppModule_providers</title>
<polygon fill="none" stroke="black" points="16,-78 16,-130 180,-130 180,-78 16,-78"/>
</g>
<!-- AppComponent -->
<g id="node1" class="node">
<title>AppComponent</title>
<polygon fill="#ffffb3" stroke="black" points="1092.94,-122 987.06,-122 987.06,-86 1092.94,-86 1092.94,-122"/>
<text text-anchor="middle" x="1040" y="-99.8" font-family="Times,serif" font-size="14.00">AppComponent</text>
</g>
<!-- AppModule -->
<g id="node6" class="node">
<title>AppModule</title>
<polygon fill="#8dd3c7" stroke="black" points="622.66,-187 619.66,-191 598.66,-191 595.66,-187 539.34,-187 539.34,-151 622.66,-151 622.66,-187"/>
<text text-anchor="middle" x="581" y="-164.8" font-family="Times,serif" font-size="14.00">AppModule</text>
</g>
<!-- AppComponent&#45;&gt;AppModule -->
<g id="edge1" class="edge">
<title>AppComponent&#45;&gt;AppModule</title>
<path fill="none" stroke="black" d="M1040,-122.29C1040,-144.21 1040,-178 1040,-178 1040,-178 632.95,-178 632.95,-178"/>
<polygon fill="black" stroke="black" points="632.95,-174.5 622.95,-178 632.95,-181.5 632.95,-174.5"/>
</g>
<!-- HomeComponent -->
<g id="node2" class="node">
<title>HomeComponent</title>
<polygon fill="#ffffb3" stroke="black" points="969.55,-122 854.45,-122 854.45,-86 969.55,-86 969.55,-122"/>
<text text-anchor="middle" x="912" y="-99.8" font-family="Times,serif" font-size="14.00">HomeComponent</text>
</g>
<!-- HomeComponent&#45;&gt;AppModule -->
<g id="edge2" class="edge">
<title>HomeComponent&#45;&gt;AppModule</title>
<path fill="none" stroke="black" d="M912,-122.11C912,-141.34 912,-169 912,-169 912,-169 632.92,-169 632.92,-169"/>
<polygon fill="black" stroke="black" points="632.92,-165.5 622.92,-169 632.92,-172.5 632.92,-165.5"/>
</g>
<!-- RepositoryCardComponent -->
<g id="node3" class="node">
<title>RepositoryCardComponent</title>
<polygon fill="#ffffb3" stroke="black" points="835.98,-122 666.02,-122 666.02,-86 835.98,-86 835.98,-122"/>
<text text-anchor="middle" x="751" y="-99.8" font-family="Times,serif" font-size="14.00">RepositoryCardComponent</text>
</g>
<!-- RepositoryCardComponent&#45;&gt;AppModule -->
<g id="edge3" class="edge">
<title>RepositoryCardComponent&#45;&gt;AppModule</title>
<path fill="none" stroke="black" d="M751,-122.03C751,-138.4 751,-160 751,-160 751,-160 633.02,-160 633.02,-160"/>
<polygon fill="black" stroke="black" points="633.02,-156.5 623.02,-160 633.02,-163.5 633.02,-156.5"/>
</g>
<!-- UserCardComponent -->
<g id="node4" class="node">
<title>UserCardComponent</title>
<polygon fill="#ffffb3" stroke="black" points="648.47,-122 513.53,-122 513.53,-86 648.47,-86 648.47,-122"/>
<text text-anchor="middle" x="581" y="-99.8" font-family="Times,serif" font-size="14.00">UserCardComponent</text>
</g>
<!-- UserCardComponent&#45;&gt;AppModule -->
<g id="edge4" class="edge">
<title>UserCardComponent&#45;&gt;AppModule</title>
<path fill="none" stroke="black" d="M581,-122.11C581,-122.11 581,-140.99 581,-140.99"/>
<polygon fill="black" stroke="black" points="577.5,-140.99 581,-150.99 584.5,-140.99 577.5,-140.99"/>
</g>
<!-- UserDetailsComponent -->
<g id="node5" class="node">
<title>UserDetailsComponent</title>
<polygon fill="#ffffb3" stroke="black" points="495.91,-122 348.09,-122 348.09,-86 495.91,-86 495.91,-122"/>
<text text-anchor="middle" x="422" y="-99.8" font-family="Times,serif" font-size="14.00">UserDetailsComponent</text>
</g>
<!-- UserDetailsComponent&#45;&gt;AppModule -->
<g id="edge5" class="edge">
<title>UserDetailsComponent&#45;&gt;AppModule</title>
<path fill="none" stroke="black" d="M422,-122.03C422,-138.4 422,-160 422,-160 422,-160 529.22,-160 529.22,-160"/>
<polygon fill="black" stroke="black" points="529.22,-163.5 539.22,-160 529.22,-156.5 529.22,-163.5"/>
</g>
<!-- AppComponent  -->
<g id="node8" class="node">
<title>AppComponent </title>
<polygon fill="#80b1d3" stroke="black" points="635.44,-252 526.56,-252 526.56,-216 635.44,-216 635.44,-252"/>
<text text-anchor="middle" x="581" y="-229.8" font-family="Times,serif" font-size="14.00">AppComponent </text>
</g>
<!-- AppModule&#45;&gt;AppComponent  -->
<g id="edge7" class="edge">
<title>AppModule&#45;&gt;AppComponent </title>
<path fill="none" stroke="black" stroke-dasharray="1,5" d="M581,-187.11C581,-187.11 581,-205.99 581,-205.99"/>
<polygon fill="black" stroke="black" points="577.5,-205.99 581,-215.99 584.5,-205.99 577.5,-205.99"/>
</g>
<!-- AppRoutingModule -->
<g id="node7" class="node">
<title>AppRoutingModule</title>
<polygon fill="#8dd3c7" stroke="black" points="324.27,-122 321.27,-126 300.27,-126 297.27,-122 195.73,-122 195.73,-86 324.27,-86 324.27,-122"/>
<text text-anchor="middle" x="260" y="-99.8" font-family="Times,serif" font-size="14.00">AppRoutingModule</text>
</g>
<!-- AppRoutingModule&#45;&gt;AppModule -->
<g id="edge6" class="edge">
<title>AppRoutingModule&#45;&gt;AppModule</title>
<path fill="none" stroke="black" d="M260,-122.11C260,-141.34 260,-169 260,-169 260,-169 529.03,-169 529.03,-169"/>
<polygon fill="black" stroke="black" points="529.03,-172.5 539.03,-169 529.03,-165.5 529.03,-172.5"/>
</g>
<!-- ErrorInterceptor -->
<g id="node9" class="node">
<title>ErrorInterceptor</title>
<ellipse fill="#fdb462" stroke="black" cx="98" cy="-104" rx="73.53" ry="18"/>
<text text-anchor="middle" x="98" y="-99.8" font-family="Times,serif" font-size="14.00">ErrorInterceptor</text>
</g>
<!-- ErrorInterceptor&#45;&gt;AppModule -->
<g id="edge8" class="edge">
<title>ErrorInterceptor&#45;&gt;AppModule</title>
<path fill="none" stroke="black" d="M98,-122.29C98,-144.21 98,-178 98,-178 98,-178 528.98,-178 528.98,-178"/>
<polygon fill="black" stroke="black" points="528.98,-181.5 538.98,-178 528.98,-174.5 528.98,-181.5"/>
</g>
</g>
</svg>
